Coordinates
version=1
nRows=7
nColumns=40
inDegrees=yes

Units are S.I. units (second, meters, Newtons, ...)
Angles are in degrees.

endheader
time	pelvis_tilt	pelvis_list	pelvis_rotation	pelvis_tx	pelvis_ty	pelvis_tz	hip_flexion_r	hip_adduction_r	hip_rotation_r	knee_angle_r	knee_angle_r_beta	ankle_angle_r	subtalar_angle_r	mtp_angle_r	hip_flexion_l	hip_adduction_l	hip_rotation_l	knee_angle_l	knee_angle_l_beta	ankle_angle_l	subtalar_angle_l	mtp_angle_l	lumbar_extension	lumbar_bending	lumbar_rotation	arm_flex_r	arm_add_r	arm_rot_r	elbow_flex_r	pro_sup_r	wrist_flex_r	wrist_dev_r	arm_flex_l	arm_add_l	arm_rot_l	elbow_flex_l	pro_sup_l	wrist_flex_l	wrist_dev_l
     44.63000000	     -8.36437842	     -5.07234790	    -12.89150275	      1.13645325	      0.92714124	      0.39728368	     27.65086461	     -3.55877962	     -2.92443866	     22.35221794	     22.35221794	      4.17092883	      6.40279122	     -0.74717325	     14.07014803	     -5.34717514	    -13.81861040	     22.27949087	     22.27949087	     17.70392655	    -16.89868410	      5.01956618	    -10.92678214	      7.56024902	      1.42598737	    -23.17171957	    -11.21276246	     -7.52675598	     32.95607727	     46.24724433	      0.00000000	      0.00000000	     41.01631709	    -22.52926551	     -4.50205838	     62.75717047	     47.78827744	      0.00000000	      0.00000000
     44.65157143	     -8.47955105	     -4.74802878	    -13.44166166	      1.13630265	      0.92705755	      0.40144749	     26.52315546	     -3.20063126	     -3.49539085	     17.85867742	     17.85867742	      3.21750047	      9.00669540	      1.11612863	     13.40069954	     -5.25049803	    -14.54217483	     21.50090470	     21.50090470	     17.72257713	    -16.55688641	      4.85981430	    -10.54312262	      7.13375142	      1.62694656	    -23.85841186	    -10.81734043	     -7.33473349	     32.91013083	     46.22689180	      0.00000000	      0.00000000	     42.42111537	    -22.89756931	     -4.87568858	     63.75387679	     47.84054794	      0.00000000	      0.00000000
     44.67314286	     -8.39333653	     -4.43558344	    -13.92087512	      1.13662266	      0.92690032	      0.40574942	     25.47411930	     -2.96695566	     -4.34274911	     14.54542456	     14.54542456	      2.58262556	     12.06964667	      3.42795134	     12.49248030	     -5.10689720	    -15.28211836	     20.71530625	     20.71530625	     17.68436508	    -16.19541572	      4.31862386	    -10.39824086	      6.73756560	      1.90594152	    -24.45671247	    -10.47675361	     -7.13499407	     33.11203103	     46.19528694	      0.00000000	      0.00000000	     43.66857488	    -23.07453857	     -5.58533461	     65.08141745	     47.92002816	      0.00000000	      0.00000000
     44.69471429	     -8.47733890	     -4.06458172	    -14.32777161	      1.13700063	      0.92629281	      0.41019630	     25.16473184	     -2.80524399	     -5.04321377	     12.90673618	     12.90673618	      3.59650169	     14.37320514	      9.35944332	     11.79318842	     -4.93966260	    -15.95387848	     19.87397351	     19.87397351	     16.80822864	    -16.20543516	      1.84482890	    -10.01694914	      6.28719394	      1.66696296	    -24.70507259	    -10.50027407	     -6.09193437	     34.14590406	     46.05842798	      0.00000000	      0.00000000	     44.05115991	    -23.22770937	     -7.89061335	     67.34302404	     48.09557081	      0.00000000	      0.00000000
     44.71628571	     -8.45444074	     -3.78537753	    -14.63917858	      1.13780757	      0.92579407	      0.41489307	     24.55726916	     -2.50545953	     -5.16858541	     11.40338678	     11.40338678	      2.99638884	     15.53690424	      9.88106153	     11.06649639	     -4.84648542	    -16.44194565	     19.34104382	     19.34104382	     16.93939139	    -15.88040040	      1.64587217	     -9.70334617	      5.96982249	      1.89568548	    -24.61597147	    -10.22766983	     -5.89070659	     34.14556936	     46.04344392	      0.00000000	      0.00000000	     44.93709148	    -23.27534820	     -8.24840433	     68.18409007	     48.13735990	      0.00000000	      0.00000000
     44.73785714	     -8.57988008	     -3.55331496	    -14.84686696	      1.13875520	      0.92487555	      0.41977718	     24.48334987	     -2.19928901	     -5.00886133	     11.11795473	     11.11795473	      2.92755527	     15.88220108	      9.90645379	     10.65776259	     -4.86227283	    -16.66906466	     19.13342770	     19.13342770	     17.16328906	    -15.86700536	      1.54215433	     -9.17999954	      5.78423869	      1.96982395	    -24.35666671	    -10.08491477	     -5.84062356	     34.23125438	     46.03812302	      0.00000000	      0.00000000	     45.62935917	    -23.44134093	     -8.43635897	     68.58360784	     48.16171117	      0.00000000	      0.00000000
     44.75942857	     -8.34838168	     -3.38430090	    -14.97212502	      1.14042247	      0.92480231	      0.42474128	     23.63589066	     -1.95265789	     -4.91089794	     10.47391984	     10.47391984	      2.14195451	     16.26161336	      7.82636639	      9.52673569	     -4.82363375	    -17.26829990	     18.33868974	     18.33868974	     16.81808489	    -15.21884415	      0.14734277	     -9.13769252	      5.57178074	      1.86859436	    -23.54831363	    -10.12511900	     -5.30452570	     33.63983173	     46.02735360	      0.00000000	      0.00000000	     45.33744882	    -22.99328838	    -10.86174121	     71.10867086	     48.35285516	      0.00000000	      0.00000000
